<?xml version="1.0" standalone="no"?>
<!DOCTYPE svg PUBLIC "-//W3C//DTD SVG 20010904//EN"
 "http://www.w3.org/TR/2001/REC-SVG-20010904/DTD/svg10.dtd">
<svg version="1.0" xmlns="http://www.w3.org/2000/svg"
 width="174.000000pt" height="190.000000pt" viewBox="0 0 174.000000 190.000000"
 preserveAspectRatio="xMidYMid meet">

<g transform="translate(0.000000,190.000000) scale(0.100000,-0.100000)"
fill="#000000" stroke="none">
<path d="M90 1096 c0 -643 1 -707 17 -734 38 -67 128 -100 303 -112 138 -9
208 -29 298 -86 28 -19 64 -52 80 -74 15 -21 29 -39 32 -39 3 0 17 18 32 39
16 22 52 56 82 75 87 55 163 76 321 85 180 11 258 34 309 90 l36 40 0 710 0
710 -755 0 -755 0 0 -704z m1488 501 l2 -177 -732 2 -733 3 -3 169 c-2 117 1
172 9 176 6 4 336 7 732 6 l722 -1 3 -178z m2 -697 c0 -420 -2 -506 -15 -529
-31 -62 -150 -101 -306 -101 -152 0 -312 -55 -397 -137 l-44 -41 -34 37 c-73
82 -203 128 -398 141 -102 7 -128 13 -174 37 -104 53 -97 11 -100 589 l-3 504
736 0 735 0 0 -500z"/>
<path d="M814 1272 c-55 -23 -77 -41 -102 -81 l-20 -34 -30 59 -30 59 -93 -1
c-73 -1 -95 -4 -97 -15 -2 -10 12 -19 41 -26 57 -16 60 -30 47 -221 -24 -334
-33 -375 -85 -388 -14 -3 -25 -13 -25 -21 0 -12 13 -13 78 -8 51 4 99 1 142
-9 43 -9 69 -11 77 -4 8 6 30 4 67 -6 77 -23 180 -20 236 5 24 11 46 16 48 11
1 -5 33 -5 73 0 44 5 92 5 127 -2 74 -13 72 -14 72 15 0 21 -5 25 -29 25 -52
0 -54 10 -64 301 -10 294 -9 299 44 299 25 0 29 4 29 26 0 24 -3 26 -31 20
-17 -3 -57 -6 -89 -6 l-57 0 -26 -52 c-15 -31 -26 -45 -26 -33 0 11 6 31 14
45 8 14 14 30 15 36 0 15 -53 25 -61 13 -4 -6 -22 -6 -50 0 -65 15 -148 12
-195 -7z m248 -4 l48 1 -15 -36 c-8 -19 -15 -58 -15 -85 0 -41 -3 -49 -17 -46
-11 2 -21 18 -26 41 -13 55 -57 87 -117 87 -66 0 -96 -13 -116 -51 -19 -39
-14 -101 12 -130 9 -10 41 -31 70 -45 30 -15 51 -30 48 -35 -3 -5 2 -6 10 -3
36 14 153 -79 175 -139 35 -92 -31 -220 -125 -246 -59 -16 -153 -13 -214 9
-47 16 -57 17 -70 5 -9 -9 -21 -11 -29 -6 -11 7 -11 16 -2 44 7 20 11 57 9 84
-4 64 21 71 47 13 20 -45 71 -103 95 -109 117 -27 190 13 190 106 0 78 -23
104 -148 165 -96 47 -127 74 -155 136 -45 102 14 214 127 243 17 5 63 6 101 2
39 -3 91 -5 117 -5z m-83 -62 c30 -16 51 -53 51 -91 0 -13 5 -25 12 -27 14 -5
-35 -118 -52 -118 -16 0 -110 49 -146 76 -80 60 -35 173 69 174 21 0 50 -6 66
-14z m-264 -327 c64 -127 113 -234 109 -238 -10 -10 -74 70 -82 103 -7 26 -14
32 -42 34 l-33 3 6 -48 c9 -76 0 -103 -34 -103 -56 0 -60 21 -53 263 4 120 9
217 11 217 1 0 55 -104 118 -231z m425 89 l-1 -133 -20 25 c-11 14 -31 37 -44
51 l-25 26 37 81 c20 45 40 82 45 82 4 0 8 -60 8 -132z m-247 -99 c23 -12 43
-22 45 -24 1 -1 -6 -21 -16 -44 l-19 -42 -15 23 c-32 48 -58 108 -48 108 6 0
30 -10 53 -21z m111 -91 c10 -40 6 -83 -10 -106 -16 -24 -72 -57 -81 -48 -7 7
68 176 78 176 4 0 9 -10 13 -22z m136 -93 c0 -23 -36 -72 -46 -62 -4 3 38 87
44 87 1 0 2 -11 2 -25z"/>
</g>
</svg>
